<svg width="80" height="81" viewBox="0 0 80 81" fill="none" xmlns="http://www.w3.org/2000/svg">
<path vector-effect="non-scaling-stroke" fill-rule="evenodd" clip-rule="evenodd" d="M40.09 66.37H13.13C12.46 66.37 11.78 65.69 11.78 65.02V50.15C4.59 45.65 1 38.44 1 28.76C1 13.44 12.91 1.5 27.96 1.5C40.54 1.5 53.8 10.06 53.8 24.25C53.8 24.7 54.92 26.73 55.6 28.08C57.62 31.46 59.64 35.29 59.42 38.22V38.67C59.42 39.12 59.42 40.02 58.97 40.7C58.52 41.6 57.4 42.05 56.5 42.05H53.58C53.58 45.2 53.36 52.19 51.11 54.44C49.09 56.47 46.17 56.92 41.45 56.92V65.03C41.45 65.71 40.78 66.38 40.1 66.38L40.09 66.37Z" fill="#202020" stroke="white" stroke-linecap="round" stroke-linejoin="round"/>
<path vector-effect="non-scaling-stroke" d="M59.6598 79.5001H32.6998C32.0298 79.5001 31.3498 78.8201 31.3498 78.1501V63.2801C24.1598 58.7801 20.5698 51.5701 20.5698 41.8801C20.5698 26.5601 32.4798 14.6201 47.5298 14.6201C60.1098 14.6201 73.3698 23.1801 73.3698 37.3701C73.3698 37.8201 74.4898 39.8501 75.1698 41.2001C77.1898 44.5801 79.2098 48.4101 78.9898 51.3401V51.7901C78.9898 52.2401 78.9898 53.1401 78.5398 53.8201C78.0898 54.7201 76.9698 55.1701 76.0698 55.1701H73.1498C73.1498 58.3201 72.9298 65.3101 70.6798 67.5601C68.6598 69.5901 65.7398 70.0401 61.0198 70.0401V78.1501C61.0198 78.8301 60.3498 79.5001 59.6698 79.5001H59.6598Z" stroke="white" stroke-linecap="round" stroke-linejoin="round"/>
<path vector-effect="non-scaling-stroke" fill-rule="evenodd" clip-rule="evenodd" d="M20.5701 41.8801C20.5701 51.5701 24.1601 58.7701 31.3501 63.2801V66.3701H40.0901C40.7601 66.3701 41.4401 65.6901 41.4401 65.0201V56.9101C46.1601 56.9101 49.0801 56.4601 51.1001 54.4301C53.3501 52.1801 53.5701 45.1901 53.5701 42.0401H56.4901C57.3901 42.0401 58.5101 41.5901 58.9601 40.6901C59.4101 40.0101 59.4101 39.1101 59.4101 38.6601V38.2101C59.6301 35.2801 57.6101 31.4501 55.5901 28.0701C54.9201 26.7201 53.7901 24.6901 53.7901 24.2401C53.7901 20.7901 53.0001 17.6701 51.6301 14.9201C50.2601 14.7201 48.8901 14.6101 47.5201 14.6101C32.4701 14.6101 20.5601 26.5501 20.5601 41.8701L20.5701 41.8801Z" fill="#A100FF" stroke="white"/>
<path vector-effect="non-scaling-stroke" d="M36.23 50.0699H36.65C36.93 50.0699 37.21 49.9299 37.35 49.6599L47.04 35.4399C47.18 35.1699 47.18 34.8899 47.04 34.6199C46.9 34.3499 46.62 34.2099 46.34 34.2099H43.11L45.5 28.7399C45.64 28.4699 45.64 28.1899 45.5 27.9199C45.36 27.7799 45.08 27.6499 44.8 27.6499H38.76C38.48 27.6499 38.2 27.7899 38.06 28.0599L33.14 39.5499C33 39.8199 33.14 40.0999 33.28 40.3699C33.42 40.6399 33.7 40.7799 33.98 40.7799H37.49L35.8 49.1199C35.66 49.5299 35.94 49.9399 36.22 50.0799L36.23 50.0699Z" fill="black" stroke="white"/>
</svg>
